<svg width="156" height="41" viewBox="0 0 156 41" fill="none" xmlns="http://www.w3.org/2000/svg">
<path d="M74.3434 3.31741L66.3998 30.7623H62.3887L56.0181 8.67251L49.4115 30.7623L45.4397 30.8017L37.7714 3.31741H41.5859L47.5633 26.5885L54.1698 3.31741H58.181L64.4729 26.5097L70.4896 3.31741H74.3434Z" fill="white"/>
<path d="M81.8382 12.6888C82.4674 11.4551 83.3587 10.4969 84.5122 9.81441C85.692 9.13189 87.1208 8.79064 88.7986 8.79064V12.492H87.8549C83.8437 12.492 81.8382 14.6707 81.8382 19.0283V30.7623H78.2596V9.18439H81.8382V12.6888Z" fill="white"/>
<path d="M94.7778 5.67995C94.0962 5.67995 93.5194 5.4437 93.0475 4.97119C92.5757 4.49868 92.3397 3.92117 92.3397 3.23865C92.3397 2.55614 92.5757 1.97863 93.0475 1.50612C93.5194 1.03361 94.0962 0.797357 94.7778 0.797357C95.4333 0.797357 95.9838 1.03361 96.4295 1.50612C96.9014 1.97863 97.1373 2.55614 97.1373 3.23865C97.1373 3.92117 96.9014 4.49868 96.4295 4.97119C95.9838 5.4437 95.4333 5.67995 94.7778 5.67995ZM96.5081 9.18439V30.7623H92.9296V9.18439H96.5081Z" fill="white"/>
<path d="M103.748 30.9986C103.066 30.9986 102.489 30.7623 102.017 30.2898C101.545 29.8173 101.309 29.2398 101.309 28.5573C101.309 27.8748 101.545 27.2972 102.017 26.8247C102.489 26.3522 103.066 26.116 103.748 26.116C104.403 26.116 104.954 26.3522 105.399 26.8247C105.871 27.2972 106.107 27.8748 106.107 28.5573C106.107 29.2398 105.871 29.8173 105.399 30.2898C104.954 30.7623 104.403 30.9986 103.748 30.9986Z" fill="white"/>
<path d="M114.442 13.1613C115.15 11.9276 116.199 10.9038 117.588 10.09C119.004 9.25002 120.643 8.83001 122.504 8.83001C124.418 8.83001 126.148 9.28939 127.695 10.2082C129.268 11.1269 130.5 12.4263 131.391 14.1064C132.283 15.7601 132.728 17.6896 132.728 19.8946C132.728 22.0734 132.283 24.0159 131.391 25.7222C130.5 27.4285 129.268 28.7541 127.695 29.6992C126.148 30.6442 124.418 31.1167 122.504 31.1167C120.669 31.1167 119.043 30.7098 117.628 29.896C116.238 29.056 115.176 28.0191 114.442 26.7854V41H110.864V9.18439H114.442V13.1613ZM129.071 19.8946C129.071 18.2671 128.743 16.8495 128.088 15.642C127.433 14.4345 126.541 13.5157 125.414 12.8857C124.313 12.2557 123.094 11.9407 121.757 11.9407C120.446 11.9407 119.227 12.2688 118.1 12.9251C116.998 13.5551 116.107 14.487 115.425 15.7208C114.77 16.9283 114.442 18.3327 114.442 19.934C114.442 21.5615 114.77 22.9922 115.425 24.2259C116.107 25.4335 116.998 26.3653 118.1 27.0216C119.227 27.6516 120.446 27.9666 121.757 27.9666C123.094 27.9666 124.313 27.6516 125.414 27.0216C126.541 26.3653 127.433 25.4335 128.088 24.2259C128.743 22.9922 129.071 21.5484 129.071 19.8946Z" fill="white"/>
<path d="M156 9.18439L143.023 40.9212H139.326L143.573 30.5261L134.883 9.18439H138.854L145.618 26.6672L152.303 9.18439H156Z" fill="white"/>
<path fill-rule="evenodd" clip-rule="evenodd" d="M25.4484 0H3.63549C1.63597 0 0 1.49966 0 3.33258V29.9932C0 31.8262 1.63597 33.3258 3.63549 33.3258H25.4484C27.4479 33.3258 29.0839 31.8262 29.0839 29.9932V3.33258C29.0839 1.49966 27.4479 0 25.4484 0ZM9.08873 3.33258H12.7242V11.664L10.9065 10.4143L9.08873 11.664V3.33258ZM3.63549 29.9932H25.4484V3.33258H16.3597V18.3292L10.9065 14.58L5.45323 18.3292V3.33258H3.63549V29.9932Z" fill="white"/>
</svg>
